<?xml version="1.0" standalone="no"?>
<!DOCTYPE svg PUBLIC "-//W3C//DTD SVG 20010904//EN"
 "http://www.w3.org/TR/2001/REC-SVG-20010904/DTD/svg10.dtd">
<svg version="1.0" xmlns="http://www.w3.org/2000/svg"
 width="300.000000pt" height="360.000000pt" viewBox="0 0 300.000000 360.000000"
 preserveAspectRatio="xMidYMid meet">
<metadata>
Created by potrace 1.10, written by Peter Selinger 2001-2011
</metadata>
<g transform="translate(0.000000,360.000000) scale(0.100000,-0.100000)"
fill="#000000" stroke="none">
<path d="M1437 3439 c-116 -23 -235 -106 -282 -199 -56 -110 -59 -134 -60
-445 -1 -285 -2 -291 -28 -370 -31 -93 -75 -171 -154 -268 -219 -272 -353
-569 -353 -785 l0 -86 -47 -60 c-59 -77 -63 -80 -143 -111 -77 -29 -128 -76
-140 -128 -4 -20 -3 -74 3 -122 9 -75 8 -97 -8 -156 -32 -125 -9 -191 79 -224
23 -8 103 -24 178 -34 90 -13 159 -29 200 -46 150 -64 195 -77 273 -82 99 -6
173 18 226 73 l34 36 -35 -17 c-34 -17 -35 -17 -19 1 9 11 19 26 24 34 4 8 -7
-1 -24 -22 -75 -87 -245 -91 -418 -8 -77 37 -153 57 -268 71 -120 14 -191 34
-210 61 -20 29 -19 87 2 161 14 51 15 71 4 151 -17 133 5 180 103 212 28 9 65
25 82 35 42 26 117 126 118 158 1 19 10 31 36 43 110 56 216 -24 331 -246 66
-128 145 -245 167 -246 31 -1 83 31 93 57 32 84 -66 212 -264 345 -101 68
-148 126 -173 213 -35 126 11 300 134 510 60 101 52 55 -12 -72 -69 -137 -89
-213 -84 -318 3 -62 11 -93 33 -140 l29 -60 3 45 c8 131 46 261 125 434 90
196 146 340 174 445 32 125 31 155 -6 198 -52 59 -38 130 34 170 19 10 19 11
-2 37 -32 41 -46 126 -32 187 24 101 105 141 163 82 55 -58 78 -175 37 -188
-21 -7 -28 -25 -8 -25 6 0 4 -8 -6 -19 -17 -19 -17 -19 17 -3 19 10 28 18 21
20 -11 3 -11 8 -4 23 15 28 99 27 123 -1 9 -11 24 -20 32 -20 24 0 17 17 -9
24 -41 10 -44 80 -6 156 30 60 63 83 125 88 54 4 56 4 99 -39 52 -52 71 -109
63 -187 -3 -29 -14 -67 -24 -85 l-19 -32 33 -31 c26 -25 33 -39 33 -68 0 -21
-5 -46 -11 -57 -8 -15 -4 -40 16 -107 40 -129 129 -351 198 -487 72 -145 121
-269 138 -352 12 -59 14 -61 47 -65 29 -4 35 0 44 21 18 43 14 180 -6 241 -28
84 -81 180 -132 238 -48 55 -53 84 -8 41 68 -63 159 -218 189 -323 18 -60 24
-185 12 -221 -6 -17 3 -25 56 -53 90 -46 130 -90 131 -144 1 -39 4 -44 31 -50
18 -4 32 -2 37 5 18 29 30 147 26 241 -11 212 -107 412 -333 694 -102 128
-155 210 -186 291 -19 49 -23 86 -30 296 -8 242 -13 288 -44 380 -52 153 -156
252 -297 285 -52 12 -206 11 -271 -1z m232 -44 c155 -54 222 -195 154 -325
-35 -67 -55 -80 -81 -57 -58 53 -168 35 -227 -37 -18 -23 -41 -67 -50 -99 -10
-34 -22 -57 -28 -54 -7 2 -20 28 -30 58 -20 61 -78 123 -124 132 -16 3 -43 -2
-62 -11 -32 -15 -34 -14 -48 3 -42 59 -40 150 7 231 82 145 315 221 489 159z
m271 -191 c50 -103 60 -169 70 -429 9 -265 18 -307 84 -418 18 -30 36 -73 39
-96 3 -26 40 -105 101 -214 110 -200 141 -276 166 -407 13 -68 18 -84 19 -55
3 131 -38 251 -169 497 -56 104 -99 192 -96 196 3 3 8 3 10 1 2 -2 37 -49 78
-104 173 -230 239 -346 278 -487 24 -85 46 -292 36 -332 l-7 -28 -29 40 c-16
22 -41 48 -55 59 -15 10 -35 25 -45 35 -10 9 -27 19 -38 22 -17 6 -20 18 -25
104 -8 159 -74 311 -188 436 -51 56 -74 67 -97 44 -21 -21 -14 -41 34 -98 81
-99 134 -236 134 -348 0 -52 -15 -88 -24 -62 -3 8 -22 62 -41 119 -20 57 -63
158 -96 223 -74 148 -147 325 -194 470 -33 102 -35 116 -25 156 10 41 9 50
-16 97 -24 48 -25 56 -14 90 20 59 9 181 -21 232 l-24 42 22 23 c62 67 86 164
58 238 -31 85 -31 88 9 50 21 -19 50 -62 66 -96z m-779 -243 c-16 -30 -31 -26
-31 7 0 36 10 46 28 28 11 -11 11 -18 3 -35z m-13 -553 c6 -76 -54 -260 -161
-493 -33 -71 -79 -184 -103 -250 l-43 -120 0 61 c-1 76 19 143 76 263 38 79
44 99 39 132 -5 32 -1 49 24 92 18 33 30 68 30 91 0 22 10 51 25 74 21 31 53
104 79 175 10 29 31 14 34 -25z m-158 -226 c0 -8 -50 -92 -158 -270 -96 -158
-135 -345 -97 -472 31 -105 31 -103 4 -94 -13 5 -43 8 -66 8 -51 -2 -55 5 -54
109 1 187 104 418 286 645 60 74 85 96 85 74z m22 -1062 c87 -67 148 -150 148
-201 0 -33 -4 -40 -24 -45 -33 -8 -39 -3 -85 64 -32 49 -121 215 -121 228 0
12 24 -1 82 -46z"/>
<path d="M1595 2870 c-11 -12 -20 -41 -23 -73 l-4 -52 56 -28 57 -27 15 37
c18 43 14 101 -10 138 -20 31 -65 33 -91 5z m65 -21 c17 -32 3 -79 -24 -79
-29 0 -46 18 -46 50 0 48 49 69 70 29z"/>
<path d="M1244 2862 c-35 -23 -41 -101 -13 -153 13 -25 18 -24 57 12 31 28 33
33 27 71 -4 22 -16 49 -26 59 -21 21 -28 23 -45 11z m42 -37 c8 -31 -1 -55
-20 -55 -20 0 -39 36 -31 60 9 29 43 25 51 -5z"/>
<path d="M1479 2725 c19 -8 49 -25 68 -36 18 -11 33 -17 33 -12 0 14 -69 53
-103 59 l-32 5 34 -16z"/>
<path d="M1707 2663 c18 -9 36 -13 40 -9 11 10 -18 26 -47 25 -24 0 -23 -1 7
-16z"/>
<path d="M1640 2522 c-122 -68 -147 -77 -220 -77 -73 1 -104 14 -175 75 -66
57 -71 49 -6 -10 100 -91 196 -104 321 -42 115 56 195 102 180 102 -8 0 -53
-22 -100 -48z"/>
<path d="M1760 2476 c-8 -8 -73 -44 -144 -80 -178 -91 -211 -89 -333 10 -54
44 -77 55 -67 32 8 -17 103 -92 144 -113 56 -29 141 -17 225 30 39 22 85 46
104 53 39 14 101 59 101 73 0 13 -14 11 -30 -5z"/>
<path d="M1339 2026 c-129 -27 -254 -109 -302 -197 l-18 -34 22 30 c67 88 184
161 297 184 76 16 228 14 297 -4 138 -36 249 -117 300 -218 15 -31 25 -43 25
-31 0 40 -74 137 -139 183 -122 85 -319 121 -482 87z"/>
<path d="M2149 1435 c-69 -39 -65 -200 7 -283 30 -35 35 -37 90 -37 73 0 139
31 195 92 71 77 41 141 -93 203 -84 39 -159 48 -199 25z m107 -31 c65 -22 123
-62 130 -90 7 -27 -10 -61 -45 -92 l-26 -23 32 15 c36 18 63 52 63 79 0 28 25
15 28 -15 4 -32 -32 -68 -102 -103 -92 -46 -143 -27 -186 68 -28 61 -26 122 5
152 28 29 39 30 101 9z"/>
<path d="M2048 1309 c-23 -13 -64 -84 -77 -134 -6 -22 -15 -94 -21 -160 -6
-66 -18 -153 -27 -192 -15 -65 -21 -75 -53 -97 -197 -130 -447 -154 -622 -59
-38 21 -113 94 -134 131 0 1 -8 0 -17 -4 -13 -5 -10 -14 19 -54 20 -28 44 -50
57 -52 48 -7 83 -134 57 -204 -6 -15 -9 -28 -8 -30 2 -1 39 4 83 12 184 32
238 35 351 19 59 -8 129 -15 154 -15 l47 0 6 88 c3 48 13 108 22 135 15 42 24
51 46 49 14 -2 41 131 50 243 13 152 22 195 63 272 34 64 35 70 4 52z m-221
-726 c-6 -64 -17 -85 -41 -78 -6 2 -67 9 -136 16 -98 9 -143 9 -210 0 -47 -7
-104 -15 -127 -18 l-43 -6 0 57 c0 31 1 56 3 56 1 0 31 -9 65 -20 120 -38 295
-23 417 35 77 36 79 35 72 -42z"/>
<path d="M618 1254 c-15 -8 -43 -39 -62 -68 -19 -30 -47 -62 -62 -72 -14 -11
-42 -34 -60 -53 -38 -38 -45 -87 -20 -144 17 -37 75 -107 76 -91 0 6 -9 19
-21 30 -29 26 -59 87 -59 120 0 39 26 76 79 112 26 18 55 46 65 63 40 68 76
99 115 99 72 0 111 -43 203 -223 33 -65 62 -117 64 -115 2 3 -10 31 -26 64
-16 32 -43 89 -61 126 -63 136 -153 195 -231 152z"/>
<path d="M2570 1215 c0 -7 6 -18 14 -22 23 -13 53 -74 66 -133 18 -78 35 -117
71 -158 31 -35 68 -105 69 -129 0 -29 -60 -78 -154 -125 -151 -76 -255 -154
-239 -181 3 -7 3 -9 -2 -5 -4 4 -28 -11 -54 -34 -55 -48 -148 -95 -209 -104
-54 -8 -115 9 -162 44 -19 15 -39 26 -43 24 -5 -1 -6 2 -2 8 3 5 0 19 -8 31
-10 13 -17 17 -22 10 -3 -6 -12 -8 -18 -4 -16 10 19 -45 52 -80 76 -83 207
-94 335 -30 27 14 92 66 145 117 83 79 114 101 229 161 134 69 181 108 183
148 4 63 -7 90 -62 162 -39 51 -54 82 -69 141 -24 91 -46 140 -74 159 -26 19
-46 19 -46 0z"/>
</g>
</svg>
